# xmcd
#
# Track frame offsets:
#	150
#	14872
#	29631
#	46560
#	58175
#	73119
#	90026
#	104520
#	121105
#	136862
#	152949
#	168639
#	183909
#	201611
#	220970
#	234825
#	251269
#	275641
#	294758
#	309588
#
# Disc length: 4374
#
# Revision: 1
# Processed by: cddbd v1.5.1PL0 Copyright (c) Steve Scherf et al.
# Submitted via: EZCDDA 4.3.3.2
# Normalized: r0:TDELIM( - )
#
DISCID=20111414
DTITLE=Various Artist - Country Collection V-5
DYEAR=1900
DGENRE=
TTITLE0=Brian White - Still Life
TTITLE1=Brian White - Blindhearted
TTITLE2=Brian White - Not Supposed To Love You
TTITLE3=Brian White - So Much For Pretending
TTITLE4=Brian White - Between Now and Forever
TTITLE5=Brian White - On Any Day
TTITLE6=Brian White - Thats Another Song
TTITLE7=Paul Brandt - I Do
TTITLE8=Paul Brandt - I Meant To Do That
TTITLE9=Paul Brandt - Calm Before The Storm
TTITLE10=Paul Brandt - On The Inside
TTITLE11=Sawyer Brown - After All These Years
TTITLE12=John M. Montgomery - I Can Love You Like That
TTITLE13=John M. Montgomery - Long As I Live
TTITLE14=John M. Montgomery - No Mans Land
TTITLE15=John M. Montgomery - Heaven Sent Me You
TTITLE16=That Ol' Wind - Garth Brooks
TTITLE17=The Beaches Of Cheyenne - Garth Brooks
TTITLE18=Cowboys And Angels - Garth Brooks
TTITLE19=The Change - Garth Brooks
EXTD=
EXTT0=
EXTT1=
EXTT2=
EXTT3=
EXTT4=
EXTT5=
EXTT6=
EXTT7=
EXTT8=
EXTT9=
EXTT10=
EXTT11=
EXTT12=
EXTT13=
EXTT14=
EXTT15=
EXTT16=
EXTT17=
EXTT18=
EXTT19=
PLAYORDER=
